<mxfile host="app.diagrams.net" modified="2022-10-26T03:15:36.036Z" agent="5.0 (Windows NT 10.0; Win64; x64) AppleWebKit/537.36 (KHTML, like Gecko) Chrome/106.0.0.0 Safari/537.36" etag="xqsmT5cHkHx9_4wvlYz1" version="20.5.1" type="github">
  <diagram id="7sEKU-E7vrLRzo7nFG_P" name="Trang-1">
    <mxGraphModel dx="1955" dy="896" grid="1" gridSize="10" guides="1" tooltips="1" connect="1" arrows="1" fold="1" page="1" pageScale="1" pageWidth="827" pageHeight="1169" math="0" shadow="0">
      <root>
        <mxCell id="0" />
        <mxCell id="1" parent="0" />
        <mxCell id="Hdf_LucmCORUl82E7C9C-27" value="" style="rounded=0;whiteSpace=wrap;html=1;" vertex="1" parent="1">
          <mxGeometry x="140" y="120" width="1360" height="705" as="geometry" />
        </mxCell>
        <mxCell id="Hdf_LucmCORUl82E7C9C-28" value="Admin" style="shape=umlActor;verticalLabelPosition=bottom;verticalAlign=top;html=1;outlineConnect=0;" vertex="1" parent="1">
          <mxGeometry x="50" y="160" width="30" height="60" as="geometry" />
        </mxCell>
        <mxCell id="Hdf_LucmCORUl82E7C9C-29" value="Nhân viên" style="shape=umlActor;verticalLabelPosition=bottom;verticalAlign=top;html=1;outlineConnect=0;" vertex="1" parent="1">
          <mxGeometry x="50" y="670" width="30" height="60" as="geometry" />
        </mxCell>
        <mxCell id="Hdf_LucmCORUl82E7C9C-30" value="Khách hàng vãng lai" style="shape=umlActor;verticalLabelPosition=bottom;verticalAlign=top;html=1;outlineConnect=0;" vertex="1" parent="1">
          <mxGeometry x="1570" y="160" width="30" height="60" as="geometry" />
        </mxCell>
        <mxCell id="Hdf_LucmCORUl82E7C9C-31" value="Khách hàng" style="shape=umlActor;verticalLabelPosition=bottom;verticalAlign=top;html=1;outlineConnect=0;" vertex="1" parent="1">
          <mxGeometry x="1570" y="670" width="30" height="60" as="geometry" />
        </mxCell>
      </root>
    </mxGraphModel>
  </diagram>
</mxfile>
